<?xml version="1.0" standalone="no"?><!DOCTYPE svg PUBLIC "-//W3C//DTD SVG 1.1//EN" "http://www.w3.org/Graphics/SVG/1.1/DTD/svg11.dtd"><svg t="1519902657271" class="icon" style="" viewBox="0 0 1024 1024" version="1.1" xmlns="http://www.w3.org/2000/svg" p-id="4163" xmlns:xlink="http://www.w3.org/1999/xlink" width="512" height="512"><defs><style type="text/css"></style></defs><path d="M875.353518 954.406992 133.567042 954.406992c-30.204929 0-55.078433-24.874527-55.078433-55.078433L78.488609 124.671441c0-30.204929 24.874527-55.078433 55.078433-55.078433l741.786477 0c30.204929 0 55.078433 24.874527 55.078433 55.078433l0 774.656095C930.431951 929.532465 905.557424 954.406992 875.353518 954.406992zM133.567042 116.676349c-4.442172 0-7.995091 3.553942-7.995091 7.995091l0 774.656095c0 4.442172 3.553942 7.995091 7.995091 7.995091l741.786477 0c4.442172 0 7.995091-3.553942 7.995091-7.995091L883.34861 124.671441c0-4.442172-3.553942-7.995091-7.995091-7.995091C875.353518 116.676349 133.567042 116.676349 133.567042 116.676349z" p-id="4164" fill="#ffffff"></path><path d="M744.763274 296.126394l-16.879436-5.330402c-2.664689-0.88823-5.330402-3.553942-6.218632-6.218632l-5.330402-16.879436c-2.664689-8.883321-15.101953-8.883321-17.767666 0l-5.330402 16.879436c-0.88823 2.664689-3.553942 5.330402-6.218632 6.218632l-16.879436 5.330402c-8.883321 2.664689-8.883321 15.101953 0 17.767666l16.879436 5.330402c2.664689 0.88823 5.330402 3.553942 6.218632 6.218632l5.330402 16.879436c2.664689 8.883321 15.101953 8.883321 17.767666 0l5.330402-16.879436c0.88823-2.664689 3.553942-5.330402 6.218632-6.218632l16.879436-5.330402C753.646596 311.22937 753.646596 298.792107 744.763274 296.126394z" p-id="4165" fill="#ffffff"></path><path d="M283.700387 341.433276l16.879436 5.330402c2.664689 0.88823 5.330402 3.553942 6.218632 6.218632l5.330402 16.879436c2.664689 8.883321 15.101953 8.883321 17.767666 0l5.330402-16.879436c0.88823-2.664689 3.553942-5.330402 6.218632-6.218632l16.879436-5.330402c8.883321-2.664689 8.883321-15.101953 0-17.767666l-16.879436-5.330402c-2.664689-0.88823-5.330402-3.553942-6.218632-6.218632l-5.330402-16.879436c-2.664689-8.883321-15.101953-8.883321-17.767666 0l-5.330402 16.879436c-0.88823 2.664689-3.553942 5.330402-6.218632 6.218632l-16.879436 5.330402C274.817066 326.331323 274.817066 338.768587 283.700387 341.433276z" p-id="4166" fill="#ffffff"></path><path d="M360.988658 368.972493c-2.664689 5.330402 0 12.437264 5.330402 15.101953 0.88823 0 52.413743 25.762757 74.622558 73.734328 1.77646 4.442172 6.218632 7.106862 10.660804 7.106862 1.77646 0 3.553942 0 4.442172-0.88823 6.218632-2.664689 7.995091-9.771551 6.218632-15.101953-24.874527-55.966663-82.617649-84.395132-85.283362-85.283362C370.761232 360.977401 363.653347 363.642091 360.988658 368.972493z" p-id="4167" fill="#ffffff"></path><path d="M373.425921 464.028429c-5.330402-3.553942-12.437264-0.88823-15.990183 4.442172s-0.88823 12.437264 4.442172 15.990183l29.315676 16.879436c1.77646 0.88823 3.553942 1.77646 5.330402 1.77646 4.442172 0 7.995091-1.77646 9.771551-6.218632 3.553942-5.330402 0.88823-12.437264-4.442172-15.990183L373.425921 464.028429z" p-id="4168" fill="#ffffff"></path><path d="M333.449441 444.484304 333.449441 444.484304c-6.218632-2.664689-13.325493 0.88823-15.101953 7.106862-1.77646 6.218632 0.88823 12.437264 7.106862 15.101953l0.88823 0c0.88823 0.88823 2.664689 0.88823 3.553942 0.88823 4.442172 0 8.883321-2.664689 10.660804-7.995091C342.332762 453.367625 338.779843 446.260763 333.449441 444.484304z" p-id="4169" fill="#ffffff"></path><path d="M285.47787 452.479395 285.47787 452.479395c0.88823 0 0.88823 0 0.88823 0 6.218632 0 11.549034-4.442172 11.549034-10.660804 0-6.218632-4.442172-11.549034-10.660804-12.437264l-0.88823 0c-6.218632 0-11.549034 4.442172-12.437264 10.660804C273.928836 446.260763 279.259238 451.591165 285.47787 452.479395z" p-id="4170" fill="#ffffff"></path><path d="M495.131821 435.599959c0.88823 0 1.77646 0 2.664689 0 5.330402 0 9.771551-3.553942 11.549034-8.883321l10.660804-48.859801c0.88823-6.218632-2.664689-12.437264-8.883321-13.325493-6.218632-0.88823-12.437264 2.664689-13.325493 8.883321l-10.660804 48.859801C484.47204 428.493098 488.913189 434.711729 495.131821 435.599959z" p-id="4171" fill="#ffffff"></path><path d="M514.675946 343.209736c0.88823 0 1.77646 0 2.664689 0 5.330402 0 9.771551-3.553942 11.549034-8.883321l0-0.88823c0.88823-6.218632-2.664689-12.437264-8.883321-13.325493-6.218632-0.88823-12.437264 2.664689-13.325493 8.883321l0 0.88823C504.904395 335.214644 508.457314 341.433276 514.675946 343.209736z" p-id="4172" fill="#ffffff"></path><path d="M527.113209 284.577361c0.88823 0 1.77646 0 2.664689 0 5.330402 0 9.771551-3.553942 11.549034-8.883321l0-0.88823c0.88823-6.218632-2.664689-12.437264-8.883321-13.325493-6.218632-0.88823-12.437264 2.664689-13.325493 8.883321l0 0.88823C516.453429 277.470499 520.894577 283.689131 527.113209 284.577361z" p-id="4173" fill="#ffffff"></path><path d="M639.047558 512.88823c1.77646 0 4.442172-0.88823 6.218632-1.77646l43.530422-25.762757c5.330402-3.553942 7.106862-10.660804 4.442172-15.990183-3.553942-5.330402-10.660804-7.106862-15.990183-4.442172l-43.530422 25.762757c-5.330402 3.553942-7.106862 10.660804-4.442172 15.990183C631.940696 511.11177 635.494639 512.88823 639.047558 512.88823z" p-id="4174" fill="#ffffff"></path><path d="M715.447599 442.706821 715.447599 442.706821c-6.218632 3.553942-7.995091 10.660804-4.442172 15.990183 1.77646 3.553942 6.218632 5.330402 9.771551 5.330402 1.77646 0 4.442172-0.88823 6.218632-1.77646l0.88823 0c5.330402-3.553942 7.106862-10.660804 4.442172-15.990183C727.883839 441.818591 721.66623 440.042131 715.447599 442.706821z" p-id="4175" fill="#ffffff"></path><path d="M782.963295 416.944064c-3.553942-5.330402-10.660804-7.106862-15.990183-4.442172l-0.88823 0c-5.330402 3.553942-7.106862 10.660804-4.442172 15.990183 1.77646 3.553942 6.218632 5.330402 9.771551 5.330402 1.77646 0 4.442172-0.88823 6.218632-1.77646l0.88823 0C784.739754 429.381327 786.516214 422.274466 782.963295 416.944064z" p-id="4176" fill="#ffffff"></path><path d="M696.791703 549.310767 510.234797 549.310767l64.851007-64.851007 37.311791-37.311791c6.218632-6.218632 6.218632-15.990183 0-22.208814l-15.990183-15.990183c-3.553942-3.553942-7.106862-4.442172-11.549034-4.442172-4.442172 0-7.995091 1.77646-11.549034 4.442172l-37.311791 37.311791 0 0L432.946526 549.310767 293.472961 549.310767c-8.883321 0-16.879436 7.106862-16.879436 16.879436 0 8.883321 7.106862 16.879436 16.879436 16.879436l63.074547 0L356.547509 766.960833c0 19.544125 15.101953 35.534308 34.646078 35.534308l206.989261 0c19.544125 0 35.534308-15.101953 35.534308-35.534308L633.717156 583.069639l63.074547 0c8.883321 0 16.879436-7.106862 16.879436-16.879436C713.670116 557.306882 706.563254 549.310767 696.791703 549.310767zM585.745584 429.381327l6.218632 6.218632-32.869618 32.869618-6.218632-6.218632L585.745584 429.381327zM593.740676 638.148072 395.634736 638.148072l0-55.078433 198.10594 0L593.740676 638.148072z" p-id="4177" fill="#ffffff"></path></svg>