<?xml version="1.0" standalone="no"?><!DOCTYPE svg PUBLIC "-//W3C//DTD SVG 1.1//EN" "http://www.w3.org/Graphics/SVG/1.1/DTD/svg11.dtd"><svg t="1519902584463" class="icon" style="" viewBox="0 0 1024 1024" version="1.1" xmlns="http://www.w3.org/2000/svg" p-id="2735" xmlns:xlink="http://www.w3.org/1999/xlink" width="512" height="512"><defs><style type="text/css"></style></defs><path d="M464.118 846.084l95.144 0c26.276 0 47.568-21.296 47.568-47.568L606.83 402.09c0-26.276-21.292-47.574-47.568-47.574l-95.144 0c-26.272 0-47.568 21.298-47.568 47.574l0 396.426C416.55 824.788 437.846 846.084 464.118 846.084zM468.024 423.312c0-12.19 9.882-22.072 22.074-22.072l44.146 0c12.19 0 22.072 9.882 22.072 22.072l0 338.952c0 12.19-9.882 22.072-22.072 22.072L490.1 784.336c-12.192 0-22.074-9.882-22.074-22.072L468.026 423.312 468.024 423.312z" p-id="2736" fill="#9ba3af"></path><path d="M733.69 846.084l95.144 0c26.272 0 47.568-21.296 47.568-47.568L876.402 180.086c0-26.272-21.296-47.568-47.568-47.568l-95.144 0c-26.276 0-47.574 21.296-47.574 47.568l0 618.43C686.116 824.788 707.414 846.084 733.69 846.084zM739.24 207.312c0-12.19 9.882-22.072 22.074-22.072l44.146 0c12.19 0 22.072 9.882 22.072 22.072l0 554.952c0 12.19-9.882 22.072-22.072 22.072l-44.146 0c-12.192 0-22.074-9.882-22.074-22.072L739.24 207.312z" p-id="2737" fill="#9ba3af"></path><path d="M930.486 882.056 101.706 882.056c-14.718 0-26.644 11.936-26.644 26.644l0 10.658c0 14.718 11.926 26.644 26.644 26.644l828.782 0c14.718 0 26.644-11.926 26.644-26.644l0-10.658C957.13 893.992 945.204 882.056 930.486 882.056z" p-id="2738" fill="#9ba3af"></path><path d="M194.552 846.084l95.138 0c26.276 0 47.574-21.296 47.574-47.568l0-174.428c0-26.276-21.298-47.574-47.574-47.574L194.552 576.514c-26.276 0-47.574 21.298-47.574 47.574l0 174.428C146.976 824.788 168.274 846.084 194.552 846.084zM199.878 647.312c0-12.19 9.882-22.072 22.074-22.072l44.146 0c12.19 0 22.072 9.882 22.072 22.072l0 114.952c0 12.19-9.882 22.072-22.072 22.072l-44.146 0c-12.192 0-22.074-9.882-22.074-22.072C199.878 762.264 199.878 647.312 199.878 647.312z" p-id="2739" fill="#9ba3af"></path></svg>