<?xml version="1.0" standalone="no"?><!DOCTYPE svg PUBLIC "-//W3C//DTD SVG 1.1//EN" "http://www.w3.org/Graphics/SVG/1.1/DTD/svg11.dtd"><svg t="1519902496242" class="icon" style="" viewBox="0 0 1024 1024" version="1.1" xmlns="http://www.w3.org/2000/svg" p-id="1913" xmlns:xlink="http://www.w3.org/1999/xlink" width="512" height="512"><defs><style type="text/css"></style></defs><path d="M866.257969 317.739536l-708.405417 0c-60.564213 0-109.932918-49.288884-109.932918-109.853097s49.288884-109.932918 109.932918-109.932918l708.405417 0c60.644034 0 109.932918 49.288884 109.932918 109.932918S926.902004 317.739536 866.257969 317.739536zM157.852553 138.221528c-38.416757 0-69.664911 31.248154-69.664911 69.664911s31.248154 69.584066 69.664911 69.584066l708.405417 0c38.496579 0 69.664911-31.248154 69.664911-69.584066 0-38.415734-31.248154-69.664911-69.664911-69.664911L157.852553 138.221528z" p-id="1914" fill="#ffffff"></path><path d="M866.257969 621.525623l-708.405417 0c-60.564213 0-109.932918-49.288884-109.932918-109.853097 0-60.644034 49.288884-109.932918 109.932918-109.932918l708.405417 0c60.644034 0 109.932918 49.288884 109.932918 109.932918C976.190888 572.236739 926.902004 621.525623 866.257969 621.525623zM157.852553 442.007615c-38.416757 0-69.664911 31.248154-69.664911 69.664911 0 38.335912 31.248154 69.584066 69.664911 69.584066l708.405417 0c38.496579 0 69.664911-31.248154 69.664911-69.584066 0-38.416757-31.248154-69.664911-69.664911-69.664911L157.852553 442.007615z" p-id="1915" fill="#ffffff"></path><path d="M866.257969 925.472376l-708.405417 0c-60.564213 0-109.932918-49.288884-109.932918-109.932918s49.288884-109.932918 109.932918-109.932918l708.405417 0c60.644034 0 109.932918 49.288884 109.932918 109.932918S926.902004 925.472376 866.257969 925.472376zM157.852553 745.874547c-38.416757 0-69.664911 31.248154-69.664911 69.664911s31.248154 69.664911 69.664911 69.664911l708.405417 0c38.496579 0 69.664911-31.248154 69.664911-69.664911s-31.168332-69.664911-69.664911-69.664911L157.852553 745.874547z" p-id="1916" fill="#ffffff"></path></svg>