<?xml version="1.0" standalone="no"?><!DOCTYPE svg PUBLIC "-//W3C//DTD SVG 1.1//EN" "http://www.w3.org/Graphics/SVG/1.1/DTD/svg11.dtd"><svg t="1520176587760" class="icon" style="" viewBox="0 0 1024 1024" version="1.1" xmlns="http://www.w3.org/2000/svg" p-id="2178" xmlns:xlink="http://www.w3.org/1999/xlink" width="512" height="512"><defs><style type="text/css"></style></defs><path d="M716.8 204.8H307.2C137.813333 204.8 0 342.613333 0 512s137.813333 307.2 307.2 307.2h409.6c169.386667 0 307.2-137.813333 307.2-307.2s-137.813333-307.2-307.2-307.2z m0 580.266667H307.2C156.637867 785.066667 34.133333 662.562133 34.133333 512s122.504533-273.066667 273.066667-273.066667h409.6c150.562133 0 273.066667 122.504533 273.066667 273.066667s-122.504533 273.066667-273.066667 273.066667z" fill="#ffffff" p-id="2179"></path><path d="M307.2 290.133333c-122.333867 0-221.866667 99.5328-221.866667 221.866667s99.5328 221.866667 221.866667 221.866667 221.866667-99.5328 221.866667-221.866667-99.5328-221.866667-221.866667-221.866667z m0 409.6c-103.509333 0-187.733333-84.224-187.733333-187.733333s84.224-187.733333 187.733333-187.733333 187.733333 84.224 187.733333 187.733333-84.224 187.733333-187.733333 187.733333zM824.200533 431.6672L699.733333 556.1344l-56.200533-56.200533a17.0496 17.0496 0 1 0-24.132267 24.132266l68.266667 68.266667a17.015467 17.015467 0 0 0 24.132267 0l136.533333-136.533333a17.0496 17.0496 0 1 0-24.132267-24.132267z" fill="#ffffff" p-id="2180"></path></svg>